<svg width="22" height="22" viewBox="0 0 22 22" fill="none" xmlns="http://www.w3.org/2000/svg">
<path id="Vector" d="M16.5 5.32715H16.51M6 0.827148H16C18.7614 0.827148 21 3.06572 21 5.82715V15.8271C21 18.5886 18.7614 20.8271 16 20.8271H6C3.23858 20.8271 1 18.5886 1 15.8271V5.82715C1 3.06572 3.23858 0.827148 6 0.827148ZM15 10.1971C15.1234 11.0294 14.9813 11.8794 14.5938 12.6262C14.2063 13.373 13.5931 13.9786 12.8416 14.3568C12.0901 14.7351 11.2384 14.8667 10.4078 14.7331C9.57713 14.5994 8.80976 14.2072 8.21484 13.6123C7.61992 13.0174 7.22773 12.25 7.09407 11.4194C6.9604 10.5887 7.09207 9.73704 7.47033 8.98552C7.84859 8.234 8.45419 7.62089 9.20098 7.23339C9.94778 6.84589 10.7978 6.70374 11.63 6.82715C12.4789 6.95303 13.2649 7.34861 13.8717 7.95545C14.4785 8.5623 14.8741 9.34823 15 10.1971Z" stroke="white" stroke-linecap="round" stroke-linejoin="round"/>
</svg>
