<svg width="20" height="21" viewBox="0 0 20 21" fill="none" xmlns="http://www.w3.org/2000/svg">
<g id="Laag_1" clip-path="url(#clip0_2399_1091)">
<g id="PQswOL">
<g id="Group">
<path id="Vector" d="M6.94781 0.317975C9.3877 0.234256 12.2599 0.18253 14.6748 0.369167C17.9132 0.619261 19.7459 3.14579 19.9037 6.2301C20.029 8.67504 20.0359 11.8985 19.9037 14.3403C19.7139 17.8389 17.5912 19.9239 14.1065 20.1303C11.504 20.2844 8.46068 20.2758 5.86139 20.1303C1.86918 19.9068 0.213439 17.5787 0.0641768 13.7713C-0.0232479 11.5482 -0.0195163 8.95179 0.0641768 6.72762C0.241692 2.01477 2.43051 0.473684 6.94781 0.317975ZM6.66314 2.09529C3.81864 2.24993 2.06162 2.93996 1.84466 6.09199C1.67034 8.62438 1.68153 11.7343 1.84092 14.2693C2.0371 17.3867 3.66245 18.2623 6.57199 18.4244C8.61527 18.538 11.3516 18.538 13.3948 18.4244C16.5736 18.2474 17.869 17.3014 18.1222 14.0523C18.3002 11.7679 18.2981 8.80408 18.1222 6.51858C17.8428 2.89356 16.4174 2.21421 12.9721 2.07183C11.0045 1.99024 8.627 1.98917 6.66314 2.09582V2.09529Z" fill="white"/>
<path id="Vector_2" d="M9.86581 5.14864C12.1954 5.05799 14.5649 6.94516 14.9791 9.23546C15.8672 14.1461 10.0017 17.3595 6.42799 13.8763C3.20021 10.7302 5.38902 5.32302 9.86581 5.14811V5.14864ZM7.62742 12.6418C10.7086 15.7224 15.5175 10.9237 12.2604 7.83088C9.13869 4.86655 4.5425 9.55807 7.62742 12.6418Z" fill="white"/>
<path id="Vector_3" d="M14.4506 4.08895C15.2833 3.25496 16.9635 4.16734 16.3367 5.44181C15.5077 7.12847 13.2357 5.30476 14.4506 4.08895Z" fill="white"/>
</g>
</g>
</g>
<defs>
<clipPath id="clip0_2399_1091">
<rect width="20" height="20" fill="white" transform="translate(0 0.242188)"/>
</clipPath>
</defs>
</svg>
