<svg width="52" height="53" viewBox="0 0 52 53" fill="none" xmlns="http://www.w3.org/2000/svg">
<rect x="-0.5" y="0.5" width="51" height="51" rx="9.5" transform="matrix(-1 0 0 1 51 0.242188)" stroke="white"/>
<g clip-path="url(#clip0_2465_1090)">
<path d="M22.9478 16.318C25.3877 16.2343 28.2599 16.1825 30.6748 16.3692C33.9132 16.6193 35.7459 19.1458 35.9037 22.2301C36.029 24.675 36.0359 27.8985 35.9037 30.3403C35.7139 33.8389 33.5912 35.9239 30.1065 36.1303C27.504 36.2844 24.4607 36.2758 21.8614 36.1303C17.8692 35.9068 16.2134 33.5787 16.0642 29.7713C15.9768 27.5482 15.9805 24.9518 16.0642 22.7276C16.2417 18.0148 18.4305 16.4737 22.9478 16.318ZM22.6631 18.0953C19.8186 18.2499 18.0616 18.94 17.8447 22.092C17.6703 24.6244 17.6815 27.7343 17.8409 30.2693C18.0371 33.3867 19.6624 34.2623 22.572 34.4244C24.6153 34.538 27.3516 34.538 29.3948 34.4244C32.5736 34.2474 33.869 33.3014 34.1222 30.0523C34.3002 27.7679 34.2981 24.8041 34.1222 22.5186C33.8428 18.8936 32.4174 18.2142 28.9721 18.0718C27.0045 17.9902 24.627 17.9892 22.6631 18.0958V18.0953Z" fill="white"/>
<path d="M25.8658 21.1486C28.1954 21.058 30.5649 22.9452 30.9791 25.2355C31.8672 30.1461 26.0017 33.3595 22.428 29.8763C19.2002 26.7302 21.389 21.323 25.8658 21.1481V21.1486ZM23.6274 28.6418C26.7086 31.7224 31.5175 26.9237 28.2604 23.8309C25.1387 20.8666 20.5425 25.5581 23.6274 28.6418Z" fill="white"/>
<path d="M30.4506 20.089C31.2833 19.255 32.9635 20.1673 32.3367 21.4418C31.5077 23.1285 29.2357 21.3048 30.4506 20.089Z" fill="white"/>
</g>
<defs>
<clipPath id="clip0_2465_1090">
<rect width="20" height="20" fill="white" transform="translate(16 16.2422)"/>
</clipPath>
</defs>
</svg>
