<svg width="22" height="21" viewBox="0 0 22 21" fill="none" xmlns="http://www.w3.org/2000/svg">
<g id="Vector">
<path d="M15 7.32715C16.5913 7.32715 18.1174 7.95929 19.2426 9.08451C20.3679 10.2097 21 11.7358 21 13.3271V20.3271H17V13.3271C17 12.7967 16.7893 12.288 16.4142 11.9129C16.0391 11.5379 15.5304 11.3271 15 11.3271C14.4696 11.3271 13.9609 11.5379 13.5858 11.9129C13.2107 12.288 13 12.7967 13 13.3271V20.3271H9V13.3271C9 11.7358 9.63214 10.2097 10.7574 9.08451C11.8826 7.95929 13.4087 7.32715 15 7.32715Z" stroke="white" stroke-linecap="round" stroke-linejoin="round"/>
<path d="M5 8.32715H1V20.3271H5V8.32715Z" stroke="white" stroke-linecap="round" stroke-linejoin="round"/>
<path d="M3 5.32715C4.10457 5.32715 5 4.43172 5 3.32715C5 2.22258 4.10457 1.32715 3 1.32715C1.89543 1.32715 1 2.22258 1 3.32715C1 4.43172 1.89543 5.32715 3 5.32715Z" stroke="white" stroke-linecap="round" stroke-linejoin="round"/>
</g>
</svg>
