<svg width="23" height="23" viewBox="0 0 23 23" fill="none" xmlns="http://www.w3.org/2000/svg">
<g clip-path="url(#clip0_2245_3339)">
<path d="M0.0849609 22.2464L1.57818 16.673C-1.94087 10.3783 1.36894 2.31465 8.38325 0.548785C16.5611 -1.51033 24.0287 6.03184 21.7017 14.1843C19.7948 20.8641 11.9292 24.1026 5.8153 20.7769L0.0849609 22.2464ZM11.0574 2.0309C4.50913 2.16247 0.135686 8.69965 2.75753 14.7914C2.89703 15.1148 3.54377 16.1546 3.55962 16.3607C3.60718 16.9995 2.76704 18.7067 2.70839 19.4613L2.80826 19.707L6.05465 18.8573C10.9433 21.7471 17.1476 20.1001 19.5174 14.8453C22.2169 8.85975 17.5343 1.90251 11.0574 2.0309Z" fill="#2D2D2D"/>
<path d="M7.01888 6.1398C7.50394 6.04152 8.01911 6.04311 8.29335 6.48854C8.43284 6.71521 9.26188 8.76006 9.25078 8.92175C9.24127 9.05649 9.078 9.33548 9.00191 9.46546C8.48515 10.3484 8.03021 10.0329 8.79426 11.2028C9.33162 12.0255 10.1369 12.6992 10.9675 13.2191C11.1783 13.3507 12.1453 13.9023 12.3165 13.9308C13.0139 14.0513 13.4039 12.5866 13.8826 12.5185C14.3978 12.4455 15.8783 13.5235 16.4775 13.6376C16.9388 13.953 16.4236 15.264 16.0907 15.6032C14.5706 17.1471 12.047 16.1564 10.446 15.2418C8.5977 14.1876 5.63504 11.0585 5.53993 8.84566C5.50189 7.96273 6.05352 6.33319 7.01888 6.13822V6.1398Z" fill="#2D2D2D"/>
</g>
<defs>
<clipPath id="clip0_2245_3339">
<rect width="22.0479" height="22.04" fill="white" transform="translate(0.0849609 0.206543)"/>
</clipPath>
</defs>
</svg>
