<svg width="52" height="55" viewBox="0 0 52 55" fill="none" xmlns="http://www.w3.org/2000/svg">
<rect y="3" width="52" height="52" rx="26" fill="white"/>
<circle cx="42.78" cy="7.52319" r="7.48999" fill="#DC0D1A"/>
<path d="M44.0635 12.5232H41.9512V6.73999C41.9512 6.58049 41.9535 6.38452 41.958 6.1521C41.9626 5.91512 41.9694 5.67358 41.9785 5.42749C41.9876 5.17684 41.9967 4.95125 42.0059 4.75073C41.9557 4.80998 41.8532 4.91252 41.6982 5.05835C41.5479 5.19963 41.4066 5.32723 41.2744 5.44116L40.126 6.36401L39.1074 5.09253L42.3271 2.52905H44.0635V12.5232Z" fill="white"/>
<g clip-path="url(#clip0_2245_2443)">
<path d="M14.9761 40.0198L16.4693 34.4464C12.9502 28.1518 16.26 20.0881 23.2744 18.3222C31.4522 16.2631 38.9198 23.8053 36.5928 31.9577C34.6859 38.6376 26.8204 41.876 20.7064 38.5504L14.9761 40.0198ZM25.9485 19.8043C19.4002 19.9359 15.0268 26.4731 17.6486 32.5648C17.7881 32.8882 18.4349 33.9281 18.4507 34.1341C18.4983 34.773 17.6582 36.4802 17.5995 37.2347L17.6994 37.4804L20.9458 36.6308C25.8344 39.5205 32.0387 37.8735 34.4085 32.6187C37.108 26.6332 32.4255 19.6759 25.9485 19.8043Z" fill="#2D2D2D"/>
<path d="M21.91 23.9132C22.3951 23.815 22.9102 23.8165 23.1845 24.262C23.324 24.4887 24.153 26.5335 24.1419 26.6952C24.1324 26.8299 23.9691 27.1089 23.893 27.2389C23.3763 28.1218 22.9213 27.8064 23.6854 28.9762C24.2227 29.7989 25.028 30.4726 25.8586 30.9925C26.0694 31.1241 27.0364 31.6757 27.2076 31.7043C27.9051 31.8247 28.295 30.3601 28.7737 30.2919C29.2889 30.219 30.7694 31.2969 31.3686 31.411C31.8299 31.7265 31.3147 33.0374 30.9818 33.3766C29.4617 34.9206 26.9381 33.9298 25.3371 33.0152C23.4888 31.9611 20.5262 28.832 20.431 26.6191C20.393 25.7362 20.9446 24.1066 21.91 23.9117V23.9132Z" fill="#2D2D2D"/>
</g>
<defs>
<clipPath id="clip0_2245_2443">
<rect width="22.0479" height="22.04" fill="white" transform="translate(14.9761 17.98)"/>
</clipPath>
</defs>
</svg>
