<svg width="20" height="21" viewBox="0 0 20 21" fill="none" xmlns="http://www.w3.org/2000/svg">
<g id="Laag_1" clip-path="url(#clip0_2399_1085)">
<g id="VXGT7p">
<g id="Group">
<path id="Vector" d="M0 20.2424L1.35547 15.1856C-1.83844 9.47314 1.16573 2.1561 7.52767 0.554374C14.9461 -1.31335 21.7206 5.53065 19.609 12.9282C17.8798 18.99 10.7446 21.9289 5.19764 18.911L0 20.2424ZM9.954 1.89873C4.01322 2.01807 0.0459971 7.94905 2.4249 13.4775C2.55139 13.7722 3.13928 14.714 3.15222 14.9023C3.19534 15.4832 2.43352 17.0317 2.38034 17.7161L2.47089 17.939L5.41469 17.1669C9.85051 19.788 15.4765 18.2941 17.6269 13.5263C20.0762 8.09427 15.8272 1.78083 9.95257 1.89873H9.954Z" fill="white"/>
<path id="Vector_2" d="M6.29004 5.62659C6.72988 5.53744 7.19704 5.53888 7.44714 5.94434C7.57363 6.14995 8.3254 8.00473 8.31533 8.15283C8.30671 8.27504 8.15866 8.5281 8.08966 8.646C7.62107 9.44686 7.20853 9.16073 7.90136 10.2233C8.38864 10.9695 9.12028 11.582 9.87204 12.0536C10.0632 12.173 10.94 12.6733 11.0967 12.7006C11.7292 12.8099 12.0828 11.4799 12.5169 11.4195C12.984 11.3534 14.328 12.3311 14.8699 12.4346C15.2882 12.7208 14.821 13.9113 14.5192 14.219C13.1393 15.6194 10.8509 14.7208 9.39913 13.8911C7.72312 12.9336 5.03518 10.0939 4.94894 8.08669C4.91444 7.28582 5.41466 5.80631 6.29004 5.62946V5.62659Z" fill="white"/>
</g>
</g>
</g>
<defs>
<clipPath id="clip0_2399_1085">
<rect width="20" height="20" fill="white" transform="translate(0 0.242188)"/>
</clipPath>
</defs>
</svg>
