<svg width="52" height="53" viewBox="0 0 52 53" fill="none" xmlns="http://www.w3.org/2000/svg">
<rect x="-0.5" y="0.5" width="51" height="51" rx="9.5" transform="matrix(-1 0 0 1 51 0.242188)" stroke="white"/>
<g clip-path="url(#clip0_2465_1084)">
<path d="M16 36.2424L17.3555 31.1856C14.1616 25.4731 17.1657 18.1561 23.5277 16.5544C30.9461 14.6867 37.7206 21.5306 35.609 28.9282C33.8798 34.99 26.7446 37.9289 21.1976 34.911L16 36.2424ZM25.954 17.8987C20.0132 18.0181 16.046 23.9491 18.4249 29.4775C18.5514 29.7722 19.1393 30.714 19.1522 30.9023C19.1953 31.4832 18.4335 33.0317 18.3803 33.7161L18.4709 33.939L21.4147 33.1669C25.8505 35.788 31.4765 34.2941 33.6269 29.5263C36.0762 24.0943 31.8272 17.7808 25.9526 17.8987H25.954Z" fill="white"/>
<path d="M22.29 21.6266C22.7299 21.5374 23.197 21.5389 23.4471 21.9443C23.5736 22.15 24.3254 24.0047 24.3153 24.1528C24.3067 24.275 24.1587 24.5281 24.0897 24.646C23.6211 25.4469 23.2085 25.1607 23.9014 26.2233C24.3886 26.9695 25.1203 27.582 25.872 28.0536C26.0632 28.173 26.94 28.6733 27.0967 28.7006C27.7292 28.8099 28.0828 27.4799 28.5169 27.4195C28.984 27.3534 30.328 28.3311 30.8699 28.4346C31.2882 28.7208 30.821 29.9113 30.5192 30.219C29.1393 31.6194 26.8509 30.7208 25.3991 29.8911C23.7231 28.9336 21.0352 26.0939 20.9489 24.0867C20.9144 23.2858 21.4147 21.8063 22.29 21.6295V21.6266Z" fill="white"/>
</g>
<defs>
<clipPath id="clip0_2465_1084">
<rect width="20" height="20" fill="white" transform="translate(16 16.2422)"/>
</clipPath>
</defs>
</svg>
