<svg width="22" height="22" viewBox="0 0 22 22" fill="none" xmlns="http://www.w3.org/2000/svg">
<g id="Laag_1" clip-path="url(#clip0_2274_3313)">
<path id="Vector" d="M0 21.9998L1.49051 16.4366C-2.02215 10.1533 1.28165 2.10428 8.28323 0.341619C16.4462 -1.71376 23.9003 5.81472 21.5775 13.9524C19.6741 20.6201 11.8228 23.8527 5.71994 20.5331L0 21.9998ZM10.9525 1.82105C4.41614 1.95238 0.0506329 8.4777 2.66772 14.5584C2.80696 14.8812 3.45253 15.9192 3.46835 16.1248C3.51582 16.7625 2.67722 18.4666 2.61867 19.2198L2.71835 19.465L5.95886 18.6169C10.8386 21.5014 17.0316 19.8574 19.3972 14.6122C22.0918 8.6375 17.4177 1.69289 10.9525 1.82105Z" fill="white"/>
<path id="Vector_2" d="M6.92147 5.92242C7.40565 5.82432 7.91989 5.8259 8.19362 6.27052C8.33286 6.49679 9.16039 8.53793 9.14932 8.69932C9.13982 8.83382 8.97685 9.1123 8.9009 9.24204C8.38508 10.1234 7.93096 9.8085 8.69362 10.9762C9.23001 11.7974 10.0338 12.4699 10.8629 12.9889C11.0734 13.1202 12.0386 13.6708 12.2094 13.6993C12.9056 13.8196 13.2949 12.3576 13.7727 12.2895C14.287 12.2167 15.7648 13.2927 16.3629 13.4066C16.8234 13.7215 16.3091 15.03 15.9768 15.3686C14.4594 16.9098 11.9405 15.9208 10.3424 15.0079C8.49742 13.9557 5.54014 10.8322 5.4452 8.62337C5.40723 7.74204 5.95786 6.11546 6.92147 5.92084V5.92242Z" fill="white"/>
</g>
<defs>
<clipPath id="clip0_2274_3313">
<rect width="22.0079" height="22" fill="white"/>
</clipPath>
</defs>
</svg>
